#!OML:ASF H:\Pregnant\Project 1\Capture day 1\Session 1\femalepreg.ASF
:FULLY-SPECIFIED
:DEGREES
307
root 7.19354 15.2593 17.8658 23.0593 -10.5402 -4.70425
lowerback -12.6855 -4.10194 0.439535
upperback -2.90451 -5.53888 0.367488
thorax 4.02899 -2.75047 -0.742767
lowerneck -11.2952 -8.18566 -5.17678
upperneck 14.9218 -11.5906 7.58992
head 7.18063 -5.2644 2.12839
rclavicle 5.12864e-014 -1.03368e-014
rhumerus -42.501 -2.38937 -76.1365
rradius 33.3364
rwrist -5.55224
rhand -12.5155 -15.3697
rfingers 7.12502
rthumb 13.5602 -44.9082
lclavicle 5.12864e-014 -1.03368e-014
lhumerus -31.2586 14.142 63.3524
lradius 33.8557
lwrist 38.7049
lhand -22.044 -5.89801
lfingers 7.12502
lthumb 4.36631 24.037
rfemur -18.9994 15.6788 31.1991
rtibia 28.3256
rfoot -19.7141 -2.04732
rtoes -14.3516
lfemur -57.0569 -11.2444 -8.82539
ltibia 28.0859
lfoot -1.18929 3.80916
ltoes -24.4697
308
root 7.16992 15.2458 17.9821 23.111 -10.6582 -4.76983
lowerback -12.8475 -4.17496 0.142833
upperback -2.93969 -5.5868 0.153059
thorax 4.08628 -2.77571 -0.819574
lowerneck -11.2837 -8.21028 -5.23971
upperneck 15.0407 -11.6695 7.82086
head 7.2413 -5.28549 2.20135
rclavicle 1.00187e-013 2.70347e-014
rhumerus -42.9107 -2.37072 -76.0906
rradius 33.1435
rwrist -5.49553
rhand -12.4578 -15.39
rfingers 7.12502
rthumb 13.6158 -44.9247
lclavicle 1.00187e-013 2.70347e-014
lhumerus -31.2036 14.0559 63.4933
lradius 33.3404
lwrist 38.6288
lhand -22.1453 -5.8205
lfingers 7.12502
lthumb 4.26851 24.1165
rfemur -18.3533 15.879 31.3464
rtibia 28.011
rfoot -19.5912 -2.17958
rtoes -14.7003
lfemur -56.7779 -11.0456 -9.0921
ltibia 28.2353
lfoot -0.456299 2.89036
ltoes -24.3411
309
root 7.146 15.2353 18.0997 23.1531 -10.7614 -4.82044
lowerback -13.002 -4.25485 -0.177691
upperback -2.97646 -5.63934 -0.0623785
thorax 4.13994 -2.80351 -0.884792
lowerneck -11.2598 -8.2341 -5.31238
upperneck 15.1561 -11.7503 8.07121
head 7.30099 -5.30683 2.28245
rclavicle 7.51406e-014 -1.27222e-014
rhumerus -43.3123 -2.39016 -76.0166
rradius 32.9332
rwrist -5.4112
rhand -12.3996 -15.417
rfingers 7.12502
rthumb 13.6719 -44.9479
lclavicle 7.51406e-014 -1.27222e-014
lhumerus -31.1612 13.9687 63.6362
lradius 32.8156
lwrist 38.5004
lhand -22.219 -5.73043
lfingers 7.12502
lthumb 4.19727 24.208
rfemur -17.6826 16.0808 31.4831
rtibia 27.6616
rfoot -19.4101 -2.31199
rtoes -15.1605
lfemur -56.5183 -10.8132 -9.41673
ltibia 28.5375
lfoot 0.310618 1.92209
ltoes -23.6407
310
root 7.12166 15.2285 18.2187 23.1849 -10.852 -4.84184
lowerback -13.1513 -4.34579 -0.543178
upperback -3.0148 -5.69907 -0.280093
thorax 4.19318 -2.8353 -0.928742
lowerneck -11.2239 -8.25646 -5.38716
upperneck 15.2693 -11.8328 8.33636
head 7.35944 -5.32825 2.36908
rclavicle 4.45278e-014 7.95139e-015
rhumerus -43.701 -2.44206 -75.9192
rradius 32.7048
rwrist -5.30331
rhand -12.3426 -15.4429
rfingers 7.12502
rthumb 13.7268 -44.9702
lclavicle 4.45278e-014 7.95139e-015
lhumerus -31.1362 13.8948 63.7777
lradius 32.2877
lwrist 38.3122
lhand -22.262 -5.64554
lfingers 7.12502
lthumb 4.15574 24.2937
rfemur -17.0093 16.289 31.5921
rtibia 27.3121
rfoot -19.1816 -2.43923
rtoes -15.6778
lfemur -56.2823 -10.5909 -9.76645
ltibia 28.9408
lfoot 1.01663 1.0544
ltoes -22.6907
311
root 7.09634 15.2251 18.3379 23.2179 -10.9233 -4.80974
lowerback -13.2952 -4.45375 -0.986557
upperback -3.0589 -5.76904 -0.505421
thorax 4.24419 -2.87287 -0.93917
lowerneck -11.1846 -8.2824 -5.45487
upperneck 15.3829 -11.926 8.61863
head 7.41933 -5.35313 2.45913
rclavicle 2.127e-014 1.74931e-014
rhumerus -44.077 -2.54564 -75.7944
rradius 32.4535
rwrist -5.16141
rhand -12.3013 -15.4525
rfingers 7.12502
rthumb 13.7666 -44.9771
lclavicle 2.127e-014 1.74931e-014
lhumerus -31.1136 13.8315 63.9177
lradius 31.7534
lwrist 38.0664
lhand -22.2832 -5.55307
lfingers 7.12502
lthumb 4.13531 24.3865
rfemur -16.3888 16.5093 31.6492
rtibia 27.0199
rfoot -18.9155 -2.56559
rtoes -16.1448
lfemur -56.087 -10.4048 -10.1342
ltibia 29.3874
lfoot 1.59142 0.365598
ltoes -21.75
312
root 7.06988 15.2244 18.4569 23.2433 -10.9714 -4.7073
lowerback -13.4234 -4.5838 -1.53398
upperback -3.10593 -5.85235 -0.737428
thorax 4.2934 -2.91794 -0.900735
lowerneck -11.1483 -8.31331 -5.52256
upperneck 15.5026 -12.0317 8.92128
head 7.48455 -5.38201 2.55423
rclavicle -9.38264e-014 -2.8625e-014
rhumerus -44.4569 -2.6537 -75.6622
rradius 32.222
rwrist -5.04482
rhand -12.2788 -15.4938
rfingers 7.12502
rthumb 13.7883 -45.0169
lclavicle -9.38264e-014 -2.8625e-014
lhumerus -31.0925 13.7845 64.0624
lradius 31.2179
lwrist 37.7682
lhand -22.3047 -5.47032
lfingers 7.12502
lthumb 4.11458 24.4697
rfemur -15.8488 16.7316 31.6445
rtibia 26.8487
rfoot -18.6333 -2.6975
rtoes -16.5267
lfemur -55.9112 -10.2801 -10.5226
ltibia 29.8304
lfoot 1.95729 -0.133862
ltoes -21.0636
